<svg width="32" height="32" viewBox="0 0 32 32" fill="none" xmlns="http://www.w3.org/2000/svg">
<path d="M17.483 22.1349L17.483 22.1349L24.4494 15.3385C25.2009 14.6053 25.188 13.4254 24.4208 12.7075L24.4208 12.7074C23.6586 11.9944 22.4386 12.0061 21.6918 12.7348L18.0378 16.2994V2.29719C18.0378 1.2641 17.1638 0.440885 16.1039 0.440885C15.044 0.440885 14.17 1.2641 14.17 2.29719V16.2991L10.5171 12.7348L10.5171 12.7348C9.77034 12.0062 8.55108 11.9946 7.78858 12.7074L7.7885 12.7075C7.02153 13.4253 7.00849 14.6052 7.75996 15.3385L7.75997 15.3385L14.7257 22.1349C14.7257 22.1349 14.7257 22.1349 14.7257 22.1349C15.0901 22.4905 15.5872 22.6894 16.1043 22.6894C16.6216 22.6894 17.1185 22.4905 17.483 22.1349ZM31.3089 28.9946V19.9078C31.3089 18.8747 30.4349 18.0515 29.375 18.0515C28.3152 18.0515 27.4411 18.8747 27.4411 19.9078V27.1383H4.76671V19.9078C4.76671 18.8747 3.89266 18.0515 2.83279 18.0515C1.77292 18.0515 0.898873 18.8747 0.898873 19.9078V28.9946C0.898873 30.0278 1.77346 30.851 2.83326 30.851H29.3755C30.4354 30.851 31.3089 30.0277 31.3089 28.9946Z" fill="white" stroke="white" stroke-width="0.375433"/>
</svg>
