<svg width="27" height="27" viewBox="0 0 27 27" fill="none" xmlns="http://www.w3.org/2000/svg">
<path d="M14.9738 14.1798V2.09948C14.9738 1.20819 14.2197 0.497961 13.3053 0.497961C12.3909 0.497961 11.6369 1.20819 11.6369 2.09948V14.1795L8.48535 11.1045L8.48535 11.1044C7.84108 10.4759 6.78917 10.4659 6.13132 11.0808L6.13126 11.0809C5.46956 11.7002 5.4583 12.7182 6.10663 13.3508L6.10664 13.3508L12.1163 19.2144C12.1163 19.2144 12.1163 19.2144 12.1163 19.2144C12.4307 19.5212 12.8595 19.6927 13.3057 19.6927C13.7519 19.6927 14.1807 19.5212 14.4951 19.2144L14.3821 19.0985L14.4951 19.2144L20.5054 13.3508C21.1537 12.7183 21.1426 11.7003 20.4807 11.0809L20.4807 11.0809C19.8231 10.4657 18.7706 10.4758 18.1263 11.1044C18.1263 11.1044 18.1263 11.1045 18.1263 11.1045L14.9738 14.1798ZM26.4234 25.1326V17.293C26.4234 16.4017 25.6693 15.6915 24.7549 15.6915C23.8405 15.6915 23.0864 16.4017 23.0864 17.293V23.5311H3.52422V17.293C3.52422 16.4017 2.77014 15.6915 1.85574 15.6915C0.941347 15.6915 0.187263 16.4017 0.187263 17.293V25.1326C0.187263 26.0239 0.941808 26.7341 1.85615 26.7341H24.7553C25.6698 26.7341 26.4234 26.0238 26.4234 25.1326Z" fill="white" stroke="white" stroke-width="0.323903"/>
</svg>
