<svg width="37" height="34" viewBox="0 0 37 34" fill="none" xmlns="http://www.w3.org/2000/svg">
<rect y="5" width="29" height="29" rx="4" fill="#3BCA9F"/>
<rect x="4.2868" y="9.17299" width="24.749" height="24.749" rx="4" transform="rotate(-21.7552 4.2868 9.17299)" fill="#3BCA9F" fill-opacity="0.27"/>
<path d="M9.69922 24.0606C10.5065 24.5814 11.457 24.8418 12.5508 24.8418C14.9922 24.8418 16.2389 23.2533 16.291 20.0762L16.2324 20.0566C15.5684 21.0788 14.543 21.5899 13.1562 21.5899C11.8997 21.5899 10.8646 21.1504 10.0508 20.2715C9.24349 19.3861 8.83984 18.2728 8.83984 16.9316C8.83984 15.3561 9.32812 14.0768 10.3047 13.0938C11.2812 12.1107 12.554 11.6191 14.123 11.6191C15.7572 11.6191 17.0397 12.2409 17.9707 13.4844C18.9017 14.7279 19.3672 16.4629 19.3672 18.6895C19.3672 21.3327 18.804 23.4225 17.6777 24.959C16.5579 26.4955 14.9434 27.2637 12.834 27.2637C11.6426 27.2637 10.5977 27.0716 9.69922 26.6875V24.0606ZM11.9355 16.6484C11.9355 17.4492 12.1276 18.0775 12.5117 18.5332C12.9023 18.9889 13.4329 19.2168 14.1035 19.2168C14.7025 19.2168 15.194 18.9987 15.5781 18.5625C15.9688 18.1263 16.1641 17.5859 16.1641 16.9414C16.1641 16.1667 15.9688 15.4896 15.5781 14.9102C15.194 14.3307 14.6764 14.041 14.0254 14.041C13.3939 14.041 12.8861 14.2917 12.502 14.793C12.1243 15.2943 11.9355 15.9128 11.9355 16.6484Z" fill="white"/>
</svg>
