<svg width="37" height="34" viewBox="0 0 37 34" fill="none" xmlns="http://www.w3.org/2000/svg">
<rect y="5" width="29" height="29" rx="4" fill="#3BCA9F"/>
<rect x="4.2868" y="9.17299" width="24.749" height="24.749" rx="4" transform="rotate(-21.7552 4.2868 9.17299)" fill="#3BCA9F" fill-opacity="0.27"/>
<path d="M18.5566 14.6953C17.7884 14.2591 16.9518 14.041 16.0469 14.041C14.8815 14.041 13.9473 14.5 13.2441 15.418C12.5475 16.3294 12.1992 17.5111 12.1992 18.9629H12.2578C12.9805 17.8561 14.0514 17.3027 15.4707 17.3027C16.7402 17.3027 17.7461 17.7389 18.4883 18.6113C19.237 19.4772 19.6113 20.6068 19.6113 22C19.6113 23.5234 19.1263 24.7832 18.1562 25.7793C17.1862 26.7689 15.946 27.2637 14.4355 27.2637C12.7038 27.2637 11.3757 26.6387 10.4512 25.3887C9.5332 24.1387 9.07422 22.4264 9.07422 20.252C9.07422 17.6934 9.66992 15.6165 10.8613 14.0215C12.0592 12.4199 13.7227 11.6191 15.8516 11.6191C16.9974 11.6191 17.8991 11.7559 18.5566 12.0293V14.6953ZM12.3066 22.0293C12.3066 22.8105 12.502 23.4746 12.8926 24.0215C13.2832 24.5684 13.7975 24.8418 14.4355 24.8418C15.0801 24.8418 15.5879 24.5911 15.959 24.0898C16.3301 23.5885 16.5156 22.9603 16.5156 22.2051C16.5156 20.5059 15.8158 19.6562 14.416 19.6562C13.7845 19.6562 13.2734 19.8809 12.8828 20.3301C12.4987 20.7793 12.3066 21.3457 12.3066 22.0293Z" fill="white"/>
</svg>
