<svg width="37" height="34" viewBox="0 0 37 34" fill="none" xmlns="http://www.w3.org/2000/svg">
<rect y="5" width="29" height="29" rx="4" fill="#3BCA9F"/>
<rect x="4.28683" y="9.17299" width="24.749" height="24.749" rx="4" transform="rotate(-21.7552 4.28683 9.17299)" fill="#3BCA9F" fill-opacity="0.27"/>
<path d="M9.54297 23.709C10.5521 24.4642 11.7305 24.8418 13.0781 24.8418C13.931 24.8418 14.6081 24.653 15.1094 24.2754C15.6107 23.8978 15.8613 23.3607 15.8613 22.6641C15.8613 21.9479 15.5618 21.401 14.9629 21.0234C14.3704 20.6458 13.5371 20.457 12.4629 20.457H11.1152V18.0254H12.3555C14.3867 18.0254 15.4023 17.3418 15.4023 15.9746C15.4023 14.6855 14.6243 14.041 13.0684 14.041C12.0527 14.041 11.0664 14.373 10.1094 15.0371V12.4297C11.151 11.8893 12.3783 11.6191 13.791 11.6191C15.2233 11.6191 16.3854 11.9512 17.2773 12.6152C18.1693 13.2728 18.6152 14.1875 18.6152 15.3594C18.6152 17.3385 17.6126 18.582 15.6074 19.0898V19.1387C16.6621 19.2559 17.5052 19.6432 18.1367 20.3008C18.7682 20.9518 19.084 21.7461 19.084 22.6836C19.084 24.1224 18.5566 25.2454 17.502 26.0527C16.4538 26.86 15.054 27.2637 13.3027 27.2637C11.7467 27.2637 10.4935 27.0065 9.54297 26.4922V23.709Z" fill="white"/>
</svg>
