<svg width="37" height="34" viewBox="0 0 37 34" fill="none" xmlns="http://www.w3.org/2000/svg">
<rect y="5" width="29" height="29" rx="4" fill="#3BCA9F"/>
<rect x="4.2868" y="9.17299" width="24.749" height="24.749" rx="4" transform="rotate(-21.7552 4.2868 9.17299)" fill="#3BCA9F" fill-opacity="0.27"/>
<path d="M8.83984 22.9277C8.83984 22.0488 9.09375 21.2676 9.60156 20.584C10.1094 19.9004 10.8451 19.3991 11.8086 19.0801C11.0404 18.696 10.4447 18.2077 10.0215 17.6152C9.60482 17.0228 9.39648 16.3652 9.39648 15.6426C9.39648 14.8874 9.60156 14.2038 10.0117 13.5918C10.4284 12.9733 11.0078 12.4915 11.75 12.1465C12.4922 11.7949 13.3223 11.6191 14.2402 11.6191C15.1647 11.6191 16.0013 11.7917 16.75 12.1367C17.4987 12.4753 18.0814 12.9538 18.498 13.5723C18.9147 14.1842 19.123 14.8613 19.123 15.6035C19.123 16.3066 18.8919 16.9609 18.4297 17.5664C17.974 18.1719 17.3587 18.6504 16.584 19.002C17.528 19.3275 18.2637 19.832 18.791 20.5156C19.3184 21.1927 19.582 21.987 19.582 22.8984C19.582 24.181 19.084 25.2259 18.0879 26.0332C17.0918 26.8405 15.7995 27.2441 14.2109 27.2441C12.6224 27.2441 11.3301 26.8405 10.334 26.0332C9.33789 25.2259 8.83984 24.1908 8.83984 22.9277ZM11.9941 22.6445C11.9941 23.3477 12.196 23.9108 12.5996 24.334C13.0033 24.7572 13.5436 24.9688 14.2207 24.9688C14.8717 24.9688 15.4056 24.7572 15.8223 24.334C16.2389 23.9108 16.4473 23.3477 16.4473 22.6445C16.4473 21.987 16.2357 21.4401 15.8125 21.0039C15.3893 20.5612 14.8587 20.3398 14.2207 20.3398C13.5632 20.3398 13.026 20.5612 12.6094 21.0039C12.1992 21.4401 11.9941 21.987 11.9941 22.6445ZM12.4629 15.9648C12.4629 16.5182 12.6322 16.9935 12.9707 17.3906C13.3158 17.7813 13.7487 17.9766 14.2695 17.9766C14.7708 17.9766 15.1973 17.7845 15.5488 17.4004C15.9004 17.0163 16.0762 16.5378 16.0762 15.9648C16.0762 15.3919 15.9036 14.9069 15.5586 14.5098C15.2201 14.1126 14.7904 13.9141 14.2695 13.9141C13.7357 13.9141 13.2995 14.1126 12.9609 14.5098C12.6289 14.9069 12.4629 15.3919 12.4629 15.9648Z" fill="white"/>
</svg>
