<svg width="37" height="34" viewBox="0 0 37 34" fill="none" xmlns="http://www.w3.org/2000/svg">
<rect y="5.00001" width="29" height="29" rx="4" fill="#3BCA9F"/>
<rect x="4.28683" y="9.17299" width="24.749" height="24.749" rx="4" transform="rotate(-21.7552 4.28683 9.17299)" fill="#3BCA9F" fill-opacity="0.27"/>
<path d="M9.68945 26.6094V23.8848C10.7376 24.5228 11.8542 24.8418 13.0391 24.8418C13.931 24.8418 14.6276 24.6237 15.1289 24.1875C15.6367 23.7448 15.8906 23.1491 15.8906 22.4004C15.8906 20.8314 14.8164 20.0469 12.668 20.0469C11.8737 20.0469 10.959 20.1055 9.92383 20.2227L10.4902 11.8731H18.498V14.4707H13.0391L12.8242 17.6543C13.3646 17.6087 13.8626 17.5859 14.3184 17.5859C15.7962 17.5859 16.9616 17.9896 17.8145 18.7969C18.6738 19.6042 19.1035 20.6979 19.1035 22.0781C19.1035 23.6016 18.5859 24.8483 17.5508 25.8184C16.5156 26.7819 15.1094 27.2637 13.332 27.2637C11.8932 27.2637 10.679 27.0456 9.68945 26.6094Z" fill="white"/>
</svg>
