<svg width="37" height="34" viewBox="0 0 37 34" fill="none" xmlns="http://www.w3.org/2000/svg">
<rect y="5.00001" width="29" height="29" rx="4" fill="#3BCA9F"/>
<rect x="4.2868" y="9.17299" width="24.749" height="24.749" rx="4" transform="rotate(-21.7552 4.2868 9.17299)" fill="#3BCA9F" fill-opacity="0.27"/>
<path d="M10.6426 11.541V27H7.46875V15.0957C7.07812 15.4343 6.54427 15.7402 5.86719 16.0137C5.1901 16.2806 4.56836 16.4466 4.00195 16.5117V13.8066C5.78581 13.2858 7.32878 12.5306 8.63086 11.541H10.6426ZM15.2617 19.6856C15.2617 17.0684 15.7435 15.0697 16.707 13.6895C17.6706 12.3093 19.0638 11.6191 20.8867 11.6191C24.3633 11.6191 26.1016 14.1908 26.1016 19.334C26.1016 21.8665 25.6296 23.8229 24.6855 25.2031C23.7415 26.5768 22.3776 27.2637 20.5938 27.2637C17.0391 27.2637 15.2617 24.7376 15.2617 19.6856ZM18.4551 19.6074C18.4551 23.097 19.2005 24.8418 20.6914 24.8418C22.1562 24.8418 22.8887 23.0449 22.8887 19.4512C22.8887 15.8444 22.1758 14.041 20.75 14.041C19.2201 14.041 18.4551 15.8965 18.4551 19.6074Z" fill="white"/>
</svg>
