<svg width="37" height="34" viewBox="0 0 37 34" fill="none" xmlns="http://www.w3.org/2000/svg">
<rect y="5.00001" width="29" height="29" rx="4" fill="#3BCA9F"/>
<rect x="4.28683" y="9.17299" width="24.749" height="24.749" rx="4" transform="rotate(-21.7552 4.28683 9.17299)" fill="#3BCA9F" fill-opacity="0.27"/>
<path d="M12.6875 24.3731H19.1035V27H9.04492V25.877C9.04492 25.0892 9.18815 24.3698 9.47461 23.7188C9.76758 23.0677 10.168 22.4622 10.6758 21.9024C11.1836 21.3359 11.9714 20.6751 13.0391 19.9199C14.0156 19.1908 14.6992 18.5462 15.0898 17.9863C15.4805 17.4199 15.6758 16.821 15.6758 16.1895C15.6758 14.8288 14.9336 14.1484 13.4492 14.1484C12.1471 14.1484 10.9036 14.6693 9.71875 15.7109V12.8984C11.0404 12.0456 12.5247 11.6191 14.1719 11.6191C15.6823 11.6191 16.877 12.0065 17.7559 12.7813C18.6348 13.5495 19.0742 14.6107 19.0742 15.9649C19.0742 16.7201 18.9473 17.4037 18.6934 18.0156C18.4395 18.6211 18.0716 19.1908 17.5898 19.7246C17.1081 20.2585 16.3366 20.8997 15.2754 21.6484C14.2533 22.3776 13.5664 22.9408 13.2148 23.3379C12.8633 23.735 12.6875 24.0801 12.6875 24.3731Z" fill="white"/>
</svg>
