<svg width="32" height="32" viewBox="0 0 32 32" fill="none" xmlns="http://www.w3.org/2000/svg">
<path d="M11.6634 23.9833H21.3834V22.0393H11.6634V23.9833ZM11.6634 16.2073H21.3834V14.2633H11.6634V16.2073ZM25.2714 4.54327H7.7754C5.637 4.54327 3.8874 6.29287 3.8874 8.43127V25.9273C3.8874 28.0657 5.637 29.8153 7.7754 29.8153H25.2714C27.4098 29.8153 29.1594 28.0657 29.1594 25.9273V8.43127C29.1594 6.29287 27.4098 4.54327 25.2714 4.54327ZM23.3274 17.1793C23.3274 17.7236 22.8997 18.1513 22.3554 18.1513H11.6634V20.0953H22.3554C22.8997 20.0953 23.3274 20.523 23.3274 21.0673V24.9553C23.3274 25.4996 22.8997 25.9273 22.3554 25.9273H10.6914C10.1471 25.9273 9.7194 25.4996 9.7194 24.9553V13.2913C9.7194 12.747 10.1471 12.3193 10.6914 12.3193H22.3554C22.8997 12.3193 23.3274 12.747 23.3274 13.2913V17.1793ZM25.2714 11.3473C25.2714 11.8916 24.8437 12.3193 24.2994 12.3193C23.7551 12.3193 23.3274 11.8916 23.3274 11.3473V10.3753H9.7194V11.3473C9.7194 11.8916 9.29172 12.3193 8.7474 12.3193C8.20308 12.3193 7.7754 11.8916 7.7754 11.3473V9.40327C7.7754 8.85895 8.20308 8.43127 8.7474 8.43127H15.5514V7.45927C15.5514 6.91495 15.9791 6.48727 16.5234 6.48727C17.0677 6.48727 17.4954 6.91495 17.4954 7.45927V8.43127H24.2994C24.8437 8.43127 25.2714 8.85895 25.2714 9.40327V11.3473Z" fill="#09B56B"/>
</svg>
